<?xml version="1.0" encoding="UTF-8" standalone="no"?>
<!-- Created with Inkscape (http://www.inkscape.org/) -->

<svg
   width="160mm"
   height="160mm"
   viewBox="0 0 160 160"
   version="1.1"
   id="svg1"
   xmlns="http://www.w3.org/2000/svg"
   xmlns:svg="http://www.w3.org/2000/svg">
  <defs
     id="defs1" />
  <g
     id="layer1"
     transform="translate(-20.502281,-30.502281)">
    <path
       d="m 187.76988,170.47325 h -15.36001 v 81.024 h 13.44 v 21.888 h -50.112 v -21.888 h 10.944 v -47.616 h -0.76799 l -32.83201,59.328 h -10.75199 l -35.328005,-61.632 h -0.768 v 49.92 h 11.904 v 21.888 h -49.344 v -21.888 h 13.44 v -81.024 h -15.36 v -21.888 h 36.864 l 44.352005,77.376 h 0.768 l 41.664,-77.376 h 37.248 z m 98.88009,59.712 q 0,20.544 -13.44,32.832 -13.44,12.288 -34.176,12.288 -19.968,0 -32.64,-11.52 -12.48,-11.712 -12.48,-32.64 0,-19.008 11.52,-32.64 11.52,-13.632 34.944,-13.632 23.424,0 34.752,13.632 11.52,13.44 11.52,31.68 z m -25.536,-0.768 q 0,-13.248 -6.144,-19.392 -6.144,-6.144 -14.976,-6.144 -9.6,0 -15.168,6.912 -5.376,6.72 -5.376,19.008 0,11.136 4.992,18.816 5.184,7.68 15.36,7.68 9.6,0 15.36,-7.104 5.952,-7.296 5.952,-19.776 z m 129.4083,6.144 q 0,19.392 -13.056,29.568 -13.056,10.176 -35.904,10.176 -12.672,0 -25.344,-3.264 -12.48,-3.264 -19.776,-9.792 l 3.84,-30.912 20.544,1.92 -0.192,15.168 q 6.528,3.456 11.136,4.224 4.608,0.576 7.872,0.576 10.176,0 16.704,-2.496 6.528,-2.688 6.528,-12.096 0,-10.368 -7.68,-13.824 -7.68,-3.648 -18.048,-5.568 -9.024,-1.536 -18.24,-4.416 -9.024,-3.072 -15.168,-9.792 -6.144,-6.912 -6.144,-20.352 0,-20.928 14.208,-29.376 14.208,-8.64 31.104,-8.64 12.288,0 23.424,3.84 11.136,3.648 17.088,9.984 l 1.152,27.072 -20.544,1.92 -1.728,-14.592 q -4.8,-3.264 -9.792,-4.416 -4.8,-1.152 -9.408,-1.152 -7.68,0 -12.864,2.688 -4.992,2.688 -4.992,9.408 0,7.872 6.528,10.944 6.528,3.072 14.976,4.992 7.68,1.536 17.856,4.416 10.368,2.688 18.048,10.368 7.872,7.488 7.872,23.424 z m 102.52785,-5.376 q 0,20.544 -13.44,32.832 -13.44,12.288 -34.176,12.288 -19.968,0 -32.64,-11.52 -12.48,-11.712 -12.48,-32.64 0,-19.008 11.52,-32.64 11.52,-13.632 34.944,-13.632 23.424,0 34.752,13.632 11.52,13.44 11.52,31.68 z m -25.536,-0.768 q 0,-13.248 -6.144,-19.392 -6.144,-6.144 -14.976,-6.144 -9.6,0 -15.168,6.912 -5.376,6.72 -5.376,19.008 0,11.136 4.992,18.816 5.184,7.68 15.36,7.68 9.6,0 15.36,-7.104 5.952,-7.296 5.952,-19.776 z"
       id="text1"
       style="font-weight:bold;font-size:192px;font-family:'Zilla Slab';-inkscape-font-specification:'Zilla Slab Bold';white-space:pre;fill:#ffffff;stroke-width:1.88976;stroke-linecap:round;stroke-linejoin:round"
       transform="matrix(0.26458333,0,0,0.26458333,31.72067,54.679101)"
       aria-label="MoSo" />
  </g>
</svg>
